<?xml version="1.0" standalone="no"?>
<!DOCTYPE svg PUBLIC "-//W3C//DTD SVG 20010904//EN"
 "http://www.w3.org/TR/2001/REC-SVG-20010904/DTD/svg10.dtd">
<svg version="1.0" xmlns="http://www.w3.org/2000/svg"
 width="1031.000000pt" height="360.000000pt" viewBox="0 0 1031.000000 360.000000"
 preserveAspectRatio="xMidYMid meet">

<g transform="translate(0.000000,360.000000) scale(0.100000,-0.100000)"
fill="#000000" stroke="none">
<path d="M523 2883 l-163 -85 0 -532 0 -533 333 -637 c182 -350 335 -638 340
-639 4 -1 158 285 342 636 l335 639 -2 536 -3 536 -160 83 c-88 45 -163 83
-167 83 -5 0 -8 -260 -8 -577 l-1 -578 -168 -328 -168 -328 -166 329 -167 330
0 576 c0 317 -3 576 -7 575 -5 0 -81 -39 -170 -86z"/>
<path d="M2060 1705 l0 -1265 25 0 25 0 0 1265 0 1265 -25 0 -25 0 0 -1265z"/>
<path d="M4174 2956 c-144 -27 -258 -82 -339 -161 -122 -119 -181 -282 -192
-525 -10 -248 43 -410 181 -545 131 -129 276 -181 479 -173 122 6 196 26 297
81 115 64 277 264 242 299 -19 19 -43 -1 -80 -68 -95 -169 -268 -262 -467
-252 -92 5 -151 29 -210 86 -101 98 -154 226 -171 412 -13 148 43 273 156 344
73 47 91 49 423 55 l319 6 29 33 c53 59 35 140 -54 247 -51 61 -128 110 -218
141 -92 32 -283 41 -395 20z m234 -11 c136 -58 166 -248 56 -359 -60 -60 -87
-66 -323 -66 l-213 0 6 45 c10 64 49 175 78 221 28 43 101 114 139 135 71 38
195 49 257 24z"/>
<path d="M5575 2956 c-51 -16 -97 -40 -148 -77 -66 -48 -138 -33 -152 31 -6
30 -8 30 -71 30 -80 0 -133 -25 -165 -77 l-24 -38 -3 -627 -3 -628 131 0 130
0 0 498 c0 408 3 508 15 555 33 128 123 212 240 224 76 8 112 -18 121 -88 21
-157 199 -214 281 -90 28 41 31 117 7 167 -50 104 -224 163 -359 120z"/>
<path d="M6451 2950 c-192 -51 -370 -220 -388 -368 -16 -140 97 -241 211 -187
32 15 76 78 76 108 0 9 -13 48 -29 87 -24 61 -27 78 -19 112 30 134 153 248
269 248 91 0 133 -66 150 -239 6 -58 9 -158 7 -221 -4 -103 -8 -120 -31 -158
-32 -49 -46 -57 -202 -110 -271 -92 -398 -161 -450 -246 -24 -40 -30 -62 -34
-123 -4 -93 12 -151 56 -203 75 -87 224 -124 341 -86 59 20 155 80 228 142 67
58 88 57 108 -2 39 -115 88 -144 244 -144 l110 0 -28 30 c-16 17 -39 57 -52
88 -22 55 -22 70 -29 512 -6 473 -10 516 -54 600 -78 150 -273 215 -484 160z
m239 -710 c31 -17 40 -67 40 -224 -1 -212 -13 -240 -124 -295 -137 -67 -272
-45 -323 52 -11 22 -16 55 -15 107 4 179 69 263 267 342 73 29 124 35 155 18z"/>
<path d="M7855 2957 c-65 -22 -136 -63 -194 -111 -67 -55 -93 -63 -134 -39
-32 19 -44 45 -46 101 l-1 32 -66 0 c-82 0 -132 -25 -165 -84 l-24 -41 0 -620
0 -620 127 -3 127 -3 3 513 c3 511 3 513 25 549 37 59 128 138 197 170 173 81
284 43 337 -116 23 -69 23 -77 27 -592 l3 -523 130 0 130 0 -3 518 c-4 556 -5
567 -60 682 -32 66 -110 144 -170 170 -64 28 -186 36 -243 17z"/>
<path d="M9051 2955 c-94 -21 -158 -43 -236 -83 -95 -49 -218 -172 -267 -267
-61 -118 -73 -172 -72 -325 1 -155 21 -245 78 -364 174 -357 595 -475 996
-280 79 39 109 61 175 128 133 135 186 267 186 466 0 216 -64 397 -190 532
-91 99 -199 161 -333 193 -78 18 -251 18 -337 0z m234 -44 c214 -106 367 -467
352 -834 -7 -191 -45 -303 -135 -399 -67 -72 -129 -100 -227 -106 -94 -5 -164
17 -238 73 -124 95 -231 308 -272 539 -19 112 -19 319 0 410 29 136 113 267
200 313 99 53 218 54 320 4z"/>
<path d="M2642 2920 c-37 -23 -62 -73 -61 -122 0 -18 105 -305 233 -638 l233
-605 40 -3 40 -3 253 683 c139 376 255 689 257 696 4 8 -8 12 -40 12 l-44 0
-153 -417 c-208 -568 -211 -576 -220 -566 -4 4 -90 222 -190 483 -100 261
-185 481 -187 488 -9 21 -122 15 -161 -8z"/>
<path d="M4267 1404 c-3 -19 -18 -55 -32 -80 l-26 -44 -814 0 c-808 0 -815 0
-815 -20 0 -20 7 -20 773 -22 424 0 757 -3 740 -5 -49 -6 -41 -29 15 -43 27
-6 65 -24 85 -41 38 -31 77 -101 77 -137 0 -13 6 -22 15 -22 9 0 15 9 15 23 1
37 35 100 73 134 33 28 90 53 125 53 28 0 10 29 -20 33 -18 2 415 4 962 5 563
0 986 -3 975 -8 -11 -5 -33 -9 -50 -10 -26 -1 -23 -4 24 -20 92 -31 135 -75
156 -157 l13 -48 11 40 c24 87 78 142 166 168 43 14 46 16 20 17 -16 1 -39 5
-50 10 -11 5 686 9 1598 9 1610 1 1617 1 1617 21 0 20 -7 20 -1650 20 l-1649
0 -25 43 c-13 23 -28 58 -32 77 l-8 35 -7 -44 c-5 -24 -20 -58 -34 -77 l-26
-34 -1064 0 -1065 0 -26 42 c-15 23 -29 59 -31 80 -7 48 -29 50 -36 2z"/>
<path d="M3136 835 c-139 -49 -177 -225 -71 -330 51 -51 115 -71 176 -55 43
12 123 76 113 92 -3 5 -12 1 -20 -10 -8 -11 -30 -30 -50 -42 -43 -27 -107 -24
-152 9 -38 27 -72 96 -72 147 0 53 37 123 79 151 63 42 163 21 194 -41 l16
-31 0 45 c0 45 -17 106 -18 68 -1 -22 -11 -22 -58 -3 -44 18 -86 18 -137 0z"/>
<path d="M3855 838 c-49 -18 -83 -47 -111 -94 -23 -38 -26 -53 -22 -108 6 -95
60 -162 153 -187 83 -23 188 31 226 116 71 156 -86 330 -246 273z m131 -37
c41 -25 74 -94 74 -154 0 -174 -185 -241 -262 -95 -29 56 -30 141 -2 189 43
73 126 99 190 60z"/>
<path d="M4483 834 l27 -15 0 -164 c0 -170 -3 -195 -25 -195 -8 0 -17 -4 -20
-10 -4 -6 17 -10 54 -10 59 0 85 15 39 22 -22 3 -23 6 -26 146 -1 85 1 141 7
138 5 -3 58 -70 117 -148 l109 -142 6 185 c3 101 6 185 7 187 1 1 12 7 25 12
16 6 6 9 -43 9 -63 0 -64 0 -37 -15 l27 -15 0 -119 c0 -66 -2 -120 -4 -120 -2
0 -50 61 -107 135 -103 134 -103 135 -144 135 l-40 -1 28 -15z"/>
<path d="M5706 835 c-139 -49 -177 -225 -71 -330 51 -51 115 -71 176 -55 43
12 123 76 113 92 -3 5 -12 1 -20 -10 -8 -11 -30 -30 -50 -42 -43 -27 -107 -24
-152 9 -38 27 -72 96 -72 147 0 53 37 123 79 151 63 42 163 21 194 -41 l16
-31 0 45 c0 45 -17 106 -18 68 -1 -22 -11 -22 -58 -3 -44 18 -86 18 -137 0z"/>
<path d="M6283 839 c15 -9 17 -29 17 -194 0 -117 -4 -185 -10 -185 -5 0 -10
-4 -10 -10 0 -5 25 -10 55 -10 30 0 55 5 55 10 0 6 -7 10 -15 10 -12 0 -15 16
-15 85 0 82 1 85 23 85 18 0 33 -17 70 -78 30 -50 45 -85 41 -95 -5 -15 2 -17
57 -17 l64 0 -27 23 c-14 12 -47 56 -72 97 l-47 75 30 12 c38 16 71 59 71 93
0 35 -34 79 -76 96 -40 17 -240 20 -211 3z m206 -45 c12 -15 21 -39 21 -54 0
-15 -9 -39 -21 -54 -18 -22 -28 -26 -75 -26 l-54 0 0 80 0 80 54 0 c47 0 57
-4 75 -26z"/>
<path d="M6913 839 c15 -9 17 -29 17 -191 0 -160 -2 -182 -17 -194 -16 -12
-10 -13 45 -14 35 0 62 4 62 10 0 6 -7 10 -15 10 -13 0 -15 27 -15 185 0 165
2 185 18 194 13 8 1 10 -48 10 -49 0 -61 -2 -47 -10z"/>
<path d="M7364 831 c-19 -12 -37 -34 -44 -55 -17 -52 6 -86 111 -162 93 -69
104 -87 70 -118 -61 -55 -181 -12 -181 63 0 12 -4 21 -10 21 -6 0 -10 -30 -10
-70 0 -40 4 -70 10 -70 6 0 10 9 10 20 0 20 1 20 33 3 80 -42 189 -9 203 62 9
48 -10 73 -104 142 -88 65 -92 69 -92 104 0 30 32 49 83 49 41 0 74 -23 91
-63 14 -32 14 -32 15 31 1 35 -3 62 -9 62 -5 0 -10 -7 -10 -15 0 -14 -4 -14
-36 0 -49 20 -93 19 -130 -4z"/>
<path d="M7880 815 c0 -19 5 -35 10 -35 6 0 10 9 10 20 0 18 7 20 55 20 l55 0
0 -176 c0 -157 -2 -178 -17 -190 -16 -12 -9 -13 47 -13 56 0 63 1 48 13 -16
12 -18 33 -18 190 l0 176 55 0 c48 0 55 -2 55 -20 0 -11 5 -20 10 -20 6 0 10
16 10 35 l0 35 -160 0 -160 0 0 -35z"/>
<path d="M8645 836 c-53 -20 -111 -83 -125 -137 -38 -139 92 -281 229 -250 61
13 103 42 134 93 98 159 -63 358 -238 294z m161 -59 c62 -67 68 -171 15 -244
-69 -95 -181 -79 -232 32 -36 78 -20 164 42 220 39 35 45 37 92 32 42 -4 56
-10 83 -40z"/>
</g>
</svg>
